# xmcd
#
# Track frame offsets: 
#        150
#        19813
#        35968
#        50360
#        64882
#        82015
#        96952
#        113638
#        128707
#        145731
#        168080
#        183649
#        202950
#        219413
#        233917
#        258046
#        277597
#        293204
#        311721
#        326783
#
# Disc length: 4604 seconds
#
# Revision: 8
# Processed by: cddbd v1.5.2PL0 Copyright (c) Steve Scherf et al.
# Submitted via: ExactAudioCopy v1.0b6
#
DISCID=2211fa14
DTITLE=Romantic Collection - Sweden
DYEAR=1999
DGENRE=Pop
TTITLE0=ABBA - Happy New Year
TTITLE1=1st Class - Girl You Know It's True
TTITLE2=Ardis - Arn't No Body Business
TTITLE3=The Cardigans - Loveful
TTITLE4=Yaki Da - I Saw You Dancing
TTITLE5=Vacuum - Tears
TTITLE6=E-Type - Set The World Of Fire
TTITLE7=Army Of Lovers - Israelism
TTITLE8=Agneta Faltskog - The Heat Is On
TTITLE9=Chess - One Night In Bangkok
TTITLE10=VAN - Ice Got You Love
TTITLE11=A-Teens - The Name Of The Game
TTITLE12=Secret Service - Flash In The Night
TTITLE13=Pinocchio - Hypnotized
TTITLE14=Frida - I Know There's Something Going On
TTITLE15=Sommer - Don't Let Go
TTITLE16=Eagle-Eye Cherry - Falling In Love Again
TTITLE17=Ace Of Base - Happy Nation
TTITLE18=Emilia - Big, Big, World
TTITLE19=Rock Orchestra - Happy New Year
EXTD=\t\t\n\n YEAR: 1999
EXTT0=
EXTT1=
EXTT2=
EXTT3=
EXTT4=
EXTT5=
EXTT6=
EXTT7=
EXTT8=
EXTT9=
EXTT10=
EXTT11=
EXTT12=
EXTT13=
EXTT14=
EXTT15=
EXTT16=
EXTT17=
EXTT18=
EXTT19=
PLAYORDER=
